<mxfile host="65bd71144e">
    <diagram id="jD35vdhsqVR-TCXgskk1" name="Page-1">
        <mxGraphModel dx="1787" dy="386" grid="1" gridSize="10" guides="1" tooltips="1" connect="1" arrows="1" fold="1" page="1" pageScale="1" pageWidth="827" pageHeight="1169" math="0" shadow="0">
            <root>
                <mxCell id="0"/>
                <mxCell id="1" parent="0"/>
                <mxCell id="AdkqpBmtD6K1vI6PkDTB-17" style="edgeStyle=orthogonalEdgeStyle;rounded=0;orthogonalLoop=1;jettySize=auto;html=1;exitX=0;exitY=0.5;exitDx=0;exitDy=0;entryX=1;entryY=0.5;entryDx=0;entryDy=0;" parent="1" source="AdkqpBmtD6K1vI6PkDTB-1" target="AdkqpBmtD6K1vI6PkDTB-6" edge="1">
                    <mxGeometry relative="1" as="geometry"/>
                </mxCell>
                <mxCell id="AdkqpBmtD6K1vI6PkDTB-18" style="edgeStyle=orthogonalEdgeStyle;rounded=0;orthogonalLoop=1;jettySize=auto;html=1;exitX=0;exitY=0.5;exitDx=0;exitDy=0;entryX=1;entryY=0.5;entryDx=0;entryDy=0;" parent="1" source="AdkqpBmtD6K1vI6PkDTB-1" target="AdkqpBmtD6K1vI6PkDTB-7" edge="1">
                    <mxGeometry relative="1" as="geometry"/>
                </mxCell>
                <mxCell id="AdkqpBmtD6K1vI6PkDTB-19" style="edgeStyle=orthogonalEdgeStyle;rounded=0;orthogonalLoop=1;jettySize=auto;html=1;exitX=0;exitY=0.5;exitDx=0;exitDy=0;entryX=1;entryY=0.5;entryDx=0;entryDy=0;" parent="1" source="AdkqpBmtD6K1vI6PkDTB-1" target="AdkqpBmtD6K1vI6PkDTB-12" edge="1">
                    <mxGeometry relative="1" as="geometry"/>
                </mxCell>
                <mxCell id="AdkqpBmtD6K1vI6PkDTB-20" style="edgeStyle=orthogonalEdgeStyle;rounded=0;orthogonalLoop=1;jettySize=auto;html=1;exitX=0;exitY=0.5;exitDx=0;exitDy=0;entryX=1;entryY=0.5;entryDx=0;entryDy=0;" parent="1" source="AdkqpBmtD6K1vI6PkDTB-1" target="AdkqpBmtD6K1vI6PkDTB-8" edge="1">
                    <mxGeometry relative="1" as="geometry"/>
                </mxCell>
                <mxCell id="AdkqpBmtD6K1vI6PkDTB-21" style="edgeStyle=orthogonalEdgeStyle;rounded=0;orthogonalLoop=1;jettySize=auto;html=1;exitX=0;exitY=0.5;exitDx=0;exitDy=0;entryX=1;entryY=0.5;entryDx=0;entryDy=0;" parent="1" source="AdkqpBmtD6K1vI6PkDTB-1" target="AdkqpBmtD6K1vI6PkDTB-9" edge="1">
                    <mxGeometry relative="1" as="geometry"/>
                </mxCell>
                <mxCell id="AdkqpBmtD6K1vI6PkDTB-1" value="User" style="rounded=0;whiteSpace=wrap;html=1;" parent="1" vertex="1">
                    <mxGeometry x="130" y="245" width="120" height="60" as="geometry"/>
                </mxCell>
                <mxCell id="AdkqpBmtD6K1vI6PkDTB-3" value="friend of" style="rhombus;whiteSpace=wrap;html=1;" parent="1" vertex="1">
                    <mxGeometry x="150" y="110" width="80" height="80" as="geometry"/>
                </mxCell>
                <mxCell id="AdkqpBmtD6K1vI6PkDTB-43" style="edgeStyle=orthogonalEdgeStyle;rounded=0;orthogonalLoop=1;jettySize=auto;html=1;exitX=1;exitY=0.5;exitDx=0;exitDy=0;entryX=0;entryY=0.5;entryDx=0;entryDy=0;startArrow=none;startFill=0;endArrow=classic;endFill=1;" parent="1" source="AdkqpBmtD6K1vI6PkDTB-4" target="AdkqpBmtD6K1vI6PkDTB-34" edge="1">
                    <mxGeometry relative="1" as="geometry"/>
                </mxCell>
                <mxCell id="AdkqpBmtD6K1vI6PkDTB-44" style="edgeStyle=orthogonalEdgeStyle;rounded=0;orthogonalLoop=1;jettySize=auto;html=1;exitX=1;exitY=0.5;exitDx=0;exitDy=0;entryX=0;entryY=0.5;entryDx=0;entryDy=0;startArrow=none;startFill=0;endArrow=classic;endFill=1;" parent="1" source="AdkqpBmtD6K1vI6PkDTB-4" target="AdkqpBmtD6K1vI6PkDTB-36" edge="1">
                    <mxGeometry relative="1" as="geometry"/>
                </mxCell>
                <mxCell id="AdkqpBmtD6K1vI6PkDTB-46" style="edgeStyle=orthogonalEdgeStyle;rounded=0;orthogonalLoop=1;jettySize=auto;html=1;exitX=1;exitY=0.5;exitDx=0;exitDy=0;entryX=0;entryY=0.5;entryDx=0;entryDy=0;startArrow=none;startFill=0;endArrow=classic;endFill=1;" parent="1" source="AdkqpBmtD6K1vI6PkDTB-4" target="6" edge="1">
                    <mxGeometry relative="1" as="geometry">
                        <mxPoint x="647.0999999999999" y="314.99" as="targetPoint"/>
                    </mxGeometry>
                </mxCell>
                <mxCell id="AdkqpBmtD6K1vI6PkDTB-4" value="Treasure" style="rounded=0;whiteSpace=wrap;html=1;" parent="1" vertex="1">
                    <mxGeometry x="480" y="245" width="120" height="60" as="geometry"/>
                </mxCell>
                <mxCell id="AdkqpBmtD6K1vI6PkDTB-6" value="first_name" style="ellipse;whiteSpace=wrap;html=1;" parent="1" vertex="1">
                    <mxGeometry x="-20" y="180" width="100" height="30" as="geometry"/>
                </mxCell>
                <mxCell id="AdkqpBmtD6K1vI6PkDTB-7" value="last_name" style="ellipse;whiteSpace=wrap;html=1;" parent="1" vertex="1">
                    <mxGeometry x="-20" y="220" width="100" height="30" as="geometry"/>
                </mxCell>
                <mxCell id="AdkqpBmtD6K1vI6PkDTB-8" value="emaiil" style="ellipse;whiteSpace=wrap;html=1;" parent="1" vertex="1">
                    <mxGeometry x="-20" y="300" width="100" height="30" as="geometry"/>
                </mxCell>
                <mxCell id="AdkqpBmtD6K1vI6PkDTB-9" value="postal_code" style="ellipse;whiteSpace=wrap;html=1;" parent="1" vertex="1">
                    <mxGeometry x="-20" y="340" width="100" height="30" as="geometry"/>
                </mxCell>
                <mxCell id="AdkqpBmtD6K1vI6PkDTB-12" value="&lt;u&gt;user_name&lt;/u&gt;" style="ellipse;whiteSpace=wrap;html=1;" parent="1" vertex="1">
                    <mxGeometry x="-20" y="260" width="100" height="30" as="geometry"/>
                </mxCell>
                <mxCell id="AdkqpBmtD6K1vI6PkDTB-14" value="" style="endArrow=none;html=1;rounded=0;entryX=0.5;entryY=1;entryDx=0;entryDy=0;exitX=0.5;exitY=0;exitDx=0;exitDy=0;" parent="1" source="AdkqpBmtD6K1vI6PkDTB-1" target="AdkqpBmtD6K1vI6PkDTB-3" edge="1">
                    <mxGeometry width="50" height="50" relative="1" as="geometry">
                        <mxPoint x="350" y="320" as="sourcePoint"/>
                        <mxPoint x="400" y="270" as="targetPoint"/>
                    </mxGeometry>
                </mxCell>
                <mxCell id="AdkqpBmtD6K1vI6PkDTB-15" value="" style="endArrow=none;html=1;rounded=0;entryX=0.5;entryY=0;entryDx=0;entryDy=0;exitX=0.5;exitY=0;exitDx=0;exitDy=0;endFill=0;" parent="1" source="AdkqpBmtD6K1vI6PkDTB-3" target="AdkqpBmtD6K1vI6PkDTB-1" edge="1">
                    <mxGeometry width="50" height="50" relative="1" as="geometry">
                        <mxPoint x="100" y="200" as="sourcePoint"/>
                        <mxPoint x="150" y="150" as="targetPoint"/>
                        <Array as="points">
                            <mxPoint x="120" y="110"/>
                            <mxPoint x="120" y="190"/>
                        </Array>
                    </mxGeometry>
                </mxCell>
                <mxCell id="AdkqpBmtD6K1vI6PkDTB-22" value="N:M" style="text;html=1;align=center;verticalAlign=middle;resizable=0;points=[];autosize=1;strokeColor=none;fillColor=none;" parent="1" vertex="1">
                    <mxGeometry x="230" y="140" width="40" height="20" as="geometry"/>
                </mxCell>
                <mxCell id="13" style="edgeStyle=none;html=1;exitX=0.5;exitY=0;exitDx=0;exitDy=0;entryX=0.5;entryY=1;entryDx=0;entryDy=0;" parent="1" source="AdkqpBmtD6K1vI6PkDTB-23" target="17" edge="1">
                    <mxGeometry relative="1" as="geometry">
                        <mxPoint x="420" y="180" as="targetPoint"/>
                    </mxGeometry>
                </mxCell>
                <mxCell id="AdkqpBmtD6K1vI6PkDTB-23" value="publish" style="rhombus;whiteSpace=wrap;html=1;" parent="1" vertex="1">
                    <mxGeometry x="330" y="235" width="80" height="80" as="geometry"/>
                </mxCell>
                <mxCell id="AdkqpBmtD6K1vI6PkDTB-25" value="" style="endArrow=none;html=1;rounded=0;exitX=1;exitY=0.5;exitDx=0;exitDy=0;" parent="1" source="AdkqpBmtD6K1vI6PkDTB-1" target="AdkqpBmtD6K1vI6PkDTB-23" edge="1">
                    <mxGeometry width="50" height="50" relative="1" as="geometry">
                        <mxPoint x="350" y="410" as="sourcePoint"/>
                        <mxPoint x="400" y="360" as="targetPoint"/>
                    </mxGeometry>
                </mxCell>
                <mxCell id="AdkqpBmtD6K1vI6PkDTB-26" value="" style="endArrow=none;html=1;rounded=0;exitX=1;exitY=0.5;exitDx=0;exitDy=0;entryX=0;entryY=0.5;entryDx=0;entryDy=0;" parent="1" source="AdkqpBmtD6K1vI6PkDTB-23" target="AdkqpBmtD6K1vI6PkDTB-4" edge="1">
                    <mxGeometry width="50" height="50" relative="1" as="geometry">
                        <mxPoint x="450" y="274.58" as="sourcePoint"/>
                        <mxPoint x="560" y="274.58" as="targetPoint"/>
                    </mxGeometry>
                </mxCell>
                <mxCell id="AdkqpBmtD6K1vI6PkDTB-27" value="1:N" style="text;html=1;align=center;verticalAlign=middle;resizable=0;points=[];autosize=1;strokeColor=none;fillColor=none;" parent="1" vertex="1">
                    <mxGeometry x="355" y="315" width="30" height="20" as="geometry"/>
                </mxCell>
                <mxCell id="AdkqpBmtD6K1vI6PkDTB-32" value="coordinate_x" style="ellipse;whiteSpace=wrap;html=1;" parent="1" vertex="1">
                    <mxGeometry x="650" y="450" width="100" height="30" as="geometry"/>
                </mxCell>
                <mxCell id="AdkqpBmtD6K1vI6PkDTB-33" value="coordinate_y" style="ellipse;whiteSpace=wrap;html=1;" parent="1" vertex="1">
                    <mxGeometry x="650" y="500" width="100" height="30" as="geometry"/>
                </mxCell>
                <mxCell id="AdkqpBmtD6K1vI6PkDTB-34" value="&lt;u&gt;trasure_id&lt;/u&gt;" style="ellipse;whiteSpace=wrap;html=1;" parent="1" vertex="1">
                    <mxGeometry x="650" y="215" width="100" height="30" as="geometry"/>
                </mxCell>
                <mxCell id="AdkqpBmtD6K1vI6PkDTB-36" value="hint" style="ellipse;whiteSpace=wrap;html=1;" parent="1" vertex="1">
                    <mxGeometry x="650" y="260" width="100" height="30" as="geometry"/>
                </mxCell>
                <mxCell id="AdkqpBmtD6K1vI6PkDTB-39" style="edgeStyle=orthogonalEdgeStyle;rounded=0;orthogonalLoop=1;jettySize=auto;html=1;exitX=1;exitY=0.5;exitDx=0;exitDy=0;entryX=0;entryY=0.5;entryDx=0;entryDy=0;endArrow=classic;endFill=1;" parent="1" source="AdkqpBmtD6K1vI6PkDTB-4" target="AdkqpBmtD6K1vI6PkDTB-32" edge="1">
                    <mxGeometry relative="1" as="geometry">
                        <mxPoint x="750" y="320" as="sourcePoint"/>
                    </mxGeometry>
                </mxCell>
                <mxCell id="AdkqpBmtD6K1vI6PkDTB-40" style="edgeStyle=orthogonalEdgeStyle;rounded=0;orthogonalLoop=1;jettySize=auto;html=1;exitX=1;exitY=0.5;exitDx=0;exitDy=0;entryX=0;entryY=0.5;entryDx=0;entryDy=0;endArrow=classic;endFill=1;" parent="1" source="AdkqpBmtD6K1vI6PkDTB-4" target="AdkqpBmtD6K1vI6PkDTB-33" edge="1">
                    <mxGeometry relative="1" as="geometry">
                        <mxPoint x="750" y="320" as="sourcePoint"/>
                    </mxGeometry>
                </mxCell>
                <mxCell id="AdkqpBmtD6K1vI6PkDTB-50" value="finds" style="rhombus;whiteSpace=wrap;html=1;" parent="1" vertex="1">
                    <mxGeometry x="330" y="340" width="80" height="80" as="geometry"/>
                </mxCell>
                <mxCell id="AdkqpBmtD6K1vI6PkDTB-51" value="" style="endArrow=none;html=1;rounded=0;exitX=1;exitY=0.5;exitDx=0;exitDy=0;entryX=0.5;entryY=1;entryDx=0;entryDy=0;" parent="1" source="AdkqpBmtD6K1vI6PkDTB-50" target="AdkqpBmtD6K1vI6PkDTB-4" edge="1">
                    <mxGeometry width="50" height="50" relative="1" as="geometry">
                        <mxPoint x="460" y="420" as="sourcePoint"/>
                        <mxPoint x="530" y="420" as="targetPoint"/>
                        <Array as="points">
                            <mxPoint x="540" y="380"/>
                        </Array>
                    </mxGeometry>
                </mxCell>
                <mxCell id="AdkqpBmtD6K1vI6PkDTB-53" value="" style="endArrow=none;html=1;rounded=0;exitX=0.5;exitY=1;exitDx=0;exitDy=0;entryX=0;entryY=0.5;entryDx=0;entryDy=0;" parent="1" source="AdkqpBmtD6K1vI6PkDTB-1" target="AdkqpBmtD6K1vI6PkDTB-50" edge="1">
                    <mxGeometry width="50" height="50" relative="1" as="geometry">
                        <mxPoint x="170" y="432.5" as="sourcePoint"/>
                        <mxPoint x="300" y="332.5" as="targetPoint"/>
                        <Array as="points">
                            <mxPoint x="190" y="380"/>
                        </Array>
                    </mxGeometry>
                </mxCell>
                <mxCell id="AdkqpBmtD6K1vI6PkDTB-55" value="N:M" style="text;html=1;align=center;verticalAlign=middle;resizable=0;points=[];autosize=1;strokeColor=none;fillColor=none;" parent="1" vertex="1">
                    <mxGeometry x="290" y="430" width="40" height="20" as="geometry"/>
                </mxCell>
                <mxCell id="6" value="size" style="ellipse;whiteSpace=wrap;html=1;" parent="1" vertex="1">
                    <mxGeometry x="650" y="305" width="100" height="30" as="geometry"/>
                </mxCell>
                <mxCell id="7" value="difficulty" style="ellipse;whiteSpace=wrap;html=1;" parent="1" vertex="1">
                    <mxGeometry x="650" y="400" width="100" height="30" as="geometry"/>
                </mxCell>
                <mxCell id="10" value="terrain_type" style="ellipse;whiteSpace=wrap;html=1;" parent="1" vertex="1">
                    <mxGeometry x="650" y="350" width="100" height="30" as="geometry"/>
                </mxCell>
                <mxCell id="15" style="edgeStyle=none;html=1;exitX=0.5;exitY=1;exitDx=0;exitDy=0;entryX=0.5;entryY=0;entryDx=0;entryDy=0;" parent="1" source="AdkqpBmtD6K1vI6PkDTB-50" target="16" edge="1">
                    <mxGeometry relative="1" as="geometry">
                        <mxPoint x="400" y="540" as="targetPoint"/>
                        <mxPoint x="400" y="585" as="sourcePoint"/>
                    </mxGeometry>
                </mxCell>
                <mxCell id="16" value="datetime_found" style="ellipse;whiteSpace=wrap;html=1;" parent="1" vertex="1">
                    <mxGeometry x="315" y="470" width="110" height="50" as="geometry"/>
                </mxCell>
                <mxCell id="17" value="datetime_published" style="ellipse;whiteSpace=wrap;html=1;" parent="1" vertex="1">
                    <mxGeometry x="315" y="150" width="110" height="50" as="geometry"/>
                </mxCell>
                <mxCell id="21" style="edgeStyle=orthogonalEdgeStyle;rounded=0;orthogonalLoop=1;jettySize=auto;html=1;entryX=0;entryY=0.5;entryDx=0;entryDy=0;endArrow=classic;endFill=1;exitX=1;exitY=0.5;exitDx=0;exitDy=0;" edge="1" parent="1" source="AdkqpBmtD6K1vI6PkDTB-4" target="7">
                    <mxGeometry relative="1" as="geometry">
                        <mxPoint x="600" y="280" as="sourcePoint"/>
                        <mxPoint x="660" y="525" as="targetPoint"/>
                        <Array as="points">
                            <mxPoint x="625" y="275"/>
                            <mxPoint x="625" y="415"/>
                        </Array>
                    </mxGeometry>
                </mxCell>
                <mxCell id="24" style="edgeStyle=orthogonalEdgeStyle;rounded=0;orthogonalLoop=1;jettySize=auto;html=1;exitX=1;exitY=0.5;exitDx=0;exitDy=0;entryX=0;entryY=0.5;entryDx=0;entryDy=0;startArrow=none;startFill=0;endArrow=classic;endFill=1;" edge="1" parent="1" source="AdkqpBmtD6K1vI6PkDTB-4" target="10">
                    <mxGeometry relative="1" as="geometry">
                        <mxPoint x="610" y="285" as="sourcePoint"/>
                        <mxPoint x="660.0000000000068" y="330" as="targetPoint"/>
                    </mxGeometry>
                </mxCell>
            </root>
        </mxGraphModel>
    </diagram>
</mxfile>